<svg xmlns="http://www.w3.org/2000/svg" viewBox="-3871.048 12741 23 23">
  <defs>
    <style>
      .cls-1 {
        fill: #606060;
      }
    </style>
  </defs>
  <g id="Group_2929" data-name="Group 2929" transform="translate(-3871.048 12741)">
    <path id="Path_2106" data-name="Path 2106" class="cls-1" d="M4.193,13.729,4,17.982a1.1,1.1,0,0,0,.29.773.877.877,0,0,0,.676.29h.1l4.252-.29a.689.689,0,0,0,.58-.29l12.66-12.66a.934.934,0,0,0,0-1.353L18.5.49a.934.934,0,0,0-1.353,0L4.483,13.15A.689.689,0,0,0,4.193,13.729ZM17.819,2.519l2.609,2.609-.966,1.063L16.853,3.582ZM16.08,4.259l2.609,2.609L8.735,16.822l-.966.1a2.156,2.156,0,0,0-1.739-1.836l.1-.87Z" transform="translate(-0.134 -0.007)"/>
    <path id="Path_2107" data-name="Path 2107" class="cls-1" d="M22.034,10.63a.913.913,0,0,0-.966.966v9.471H1.933V1.933H11.4A.913.913,0,0,0,12.37.966.913.913,0,0,0,11.4,0H.966A.913.913,0,0,0,0,.966V22.034A.913.913,0,0,0,.966,23H22.034A.913.913,0,0,0,23,22.034V11.6A.913.913,0,0,0,22.034,10.63Z"/>
  </g>
</svg>
